# xmcd
# Copyright (C) 1995-1998 Ti Kan
#
# Track frame offsets:
#       150
#       11178
#       23109
#       36211
#       46751
#       58420
#       69950
#       85108
#       96707
#       109691
#       122660
#       139952
#       153483
#       171006
#
# Disc length: 2484 seconds
#
# Revision: 0
# Processed by: cddbd v1.5.2PL0 Copyright (c) Steve Scherf et al.
# Submitted via: CD-Import v1.0
#
DISCID=be09b20e
DTITLE=Los Panchos - Solo Lo Mejor De Los Panchos
DYEAR=2004
DGENRE=
TTITLE0=Nosotros
TTITLE1=Sabor A Mí
TTITLE2=La Barca
TTITLE3=Historia De Un Amor
TTITLE4=Caminito
TTITLE5=Cuando Vuelva A Tu Lado
TTITLE6=La Paloma
TTITLE7=Cuando Me Acaricias
TTITLE8=Si Tú Me Dices Ven
TTITLE9=Yo No Soy Esa
TTITLE10=Déjame
TTITLE11=La Corriente
TTITLE12=Mañana
TTITLE13=Ayúdala
EXTD=
EXTT0=
EXTT1=
EXTT2=
EXTT3=
EXTT4=
EXTT5=
EXTT6=
EXTT7=
EXTT8=
EXTT9=
EXTT10=
EXTT11=
EXTT12=
EXTT13=
PLAYORDER=
